<?xml version="1.0" encoding="utf-8"?>
<!-- Generator: Adobe Illustrator 23.0.1, SVG Export Plug-In . SVG Version: 6.00 Build 0)  -->
<svg version="1.1" id="_x31_" xmlns="http://www.w3.org/2000/svg" xmlns:xlink="http://www.w3.org/1999/xlink" x="0px" y="0px"
	 viewBox="0 0 263.98 48" style="enable-background:new 0 0 263.98 48;" xml:space="preserve">
<style type="text/css">
	.st0{fill-rule:evenodd;clip-rule:evenodd;fill:#134093;}
	.st1{fill-rule:evenodd;clip-rule:evenodd;fill:#FFFFFF;}
	.st2{fill-rule:evenodd;clip-rule:evenodd;fill:#E31B0E;}
</style>
<g>
	<path class="st0" d="M20.09,48h-1.35h-3.17l-1.67-3.26L0,44.73l1-4.11C19.64,33.41,14.41,3.71,19.32,0.28l0.06-0.04l0.06,0.04
		c4.91,3.43-0.25,33.13,18.38,40.34l1,4.11l-13.89,0.01L23.25,48H20.09z"/>
	<path class="st1" d="M19.34,43.48c3.84,0,6.95-3.11,6.95-6.95c0-3.84-3.11-6.95-6.95-6.95c-3.84,0-6.95,3.11-6.95,6.95
		C12.39,40.37,15.5,43.48,19.34,43.48z"/>
	<path class="st2" d="M19.34,29.24c4.02,0,7.28,3.26,7.28,7.28c0,4.02-3.26,7.28-7.28,7.28c-4.02,0-7.28-3.26-7.28-7.28
		C12.06,32.51,15.32,29.24,19.34,29.24L19.34,29.24z M22.25,32.17v2.15c-0.67-0.88-1.73-1.45-2.92-1.45c-1.19,0-2.24,0.57-2.91,1.44
		v-2.14c-1.4,0.94-2.33,2.54-2.33,4.36c0,1.82,0.93,3.42,2.33,4.36v-2.14c0.67,0.88,1.72,1.44,2.91,1.44c1.19,0,2.25-0.57,2.92-1.45
		v2.15c1.4-0.94,2.33-2.54,2.33-4.36C24.58,34.71,23.66,33.11,22.25,32.17z"/>
	<path class="st2" d="M19.35,33.93c1.34,0,2.45,1.02,2.58,2.33h-1.65c-0.12-0.41-0.5-0.71-0.94-0.71c-0.54,0-0.98,0.44-0.98,0.98
		c0,0.54,0.44,0.98,0.98,0.98c0.45,0,0.82-0.3,0.94-0.71h1.65c-0.14,1.31-1.24,2.33-2.58,2.33c-1.43,0-2.6-1.16-2.6-2.6
		C16.75,35.09,17.91,33.93,19.35,33.93z"/>
	<path class="st0" d="M54.25,3.27L50.71,13.4h3.88l0.68-2.18h3.04L59,13.4h4.08l-3.6-10.13H54.25L54.25,3.27z M56.82,5.67l1.06,3.17
		h-2.16l1.04-3.17H56.82L56.82,5.67z M68.39,3.1c3.57,0,5.64,2.01,5.64,5.24c0,3.23-2.07,5.24-5.64,5.24
		c-3.57,0-5.64-2.01-5.64-5.24C62.75,5.11,64.82,3.1,68.39,3.1L68.39,3.1z M68.39,5.53c-1.46,0-1.56,1.75-1.56,2.81
		s0.1,2.81,1.56,2.81c1.46,0,1.56-1.75,1.56-2.81S69.85,5.53,68.39,5.53L68.39,5.53z M96.28,10.48c-1.04,0.33-1.62,0.39-2,0.39
		c-2.43,0-2.81-1.68-2.81-2.62c0-1.46,1.09-2.55,2.73-2.55c0.78,0,1.48,0.17,2.04,0.39V3.42l-0.23-0.04
		C95.55,3.28,94.7,3.1,93.54,3.1c-4.51,0-6.15,2.63-6.15,5.24c0,3.05,2.13,5.24,6.05,5.24c0.74,0,1.66-0.09,2.84-0.41V10.48
		L96.28,10.48z M99.89,3.27L96.35,13.4h3.88l0.68-2.18h3.04l0.69,2.18h4.08l-3.6-10.13H99.89L99.89,3.27z M102.46,5.67l1.06,3.17
		h-2.16l1.04-3.17H102.46L102.46,5.67z M109.23,3.27V13.4h3.88v-2.92h2.13c3.15,0,4.31-1.95,4.31-3.57c0-1.85-1.33-3.63-4.39-3.63
		H109.23L109.23,3.27z M113,5.61h0.84c1.48,0,1.79,0.67,1.79,1.26c0,1.23-1.32,1.26-1.78,1.26H113V5.61L113,5.61z M121.92,3.27h5.22
		l3.6,10.13h-4.08l-0.69-2.18h-3.04l-0.68,2.18h-3.88L121.92,3.27L121.92,3.27z M124.48,5.67h-0.06l-1.04,3.17h2.16L124.48,5.67
		L124.48,5.67z M131.25,3.27V13.4h3.88V6.02h2.53v7.38h3.88V3.27H131.25L131.25,3.27z M142.06,3.27l3.27,6.54
		c0.23,0.45,0.23,0.62,0.23,0.71c0,0.35-0.45,0.38-0.69,0.38c-0.29,0-0.68-0.04-1.3-0.23v2.56c0.85,0.22,1.92,0.35,2.62,0.35
		c2.49,0,3.28-1.56,3.75-2.65l3.23-7.65h-3.82l-1.39,4.38h-0.06l-1.42-4.38H142.06L142.06,3.27z M159.47,13.4V6.02h-1.88v1.74
		c0,3.26-0.07,5.82-3.55,5.82c-0.64,0-1.36-0.1-1.97-0.25v-2.61c0.22,0.04,0.61,0.1,0.85,0.1c1.48,0,1.26-2.43,1.26-4.33V3.27h9.16
		V13.4H159.47L159.47,13.4z M164.79,13.4h6.06c2.89,0,4.15-1.68,4.15-3.6c0-1.92-1.26-3.6-4.15-3.6h-2.19V3.27h-3.88V13.4
		L164.79,13.4z M168.57,11.06V8.54h0.8c0.4,0,1.74,0.03,1.74,1.26c0,1.19-1.22,1.26-1.75,1.26H168.57L168.57,11.06z M184.62,10.48
		c-1.04,0.33-1.62,0.39-2,0.39c-2.43,0-2.81-1.68-2.81-2.62c0-1.46,1.08-2.55,2.73-2.55c0.78,0,1.48,0.17,2.04,0.39V3.42l-0.23-0.04
		c-0.46-0.09-1.32-0.28-2.48-0.28c-4.51,0-6.15,2.63-6.15,5.24c0,3.05,2.13,5.24,6.05,5.24c0.74,0,1.66-0.09,2.84-0.41V10.48
		L184.62,10.48z M189.51,3.27h-3.88V13.4h3.88V9.1h0.06l2.49,4.3h4.63l-3.73-5.38l3.42-4.75h-4.41l-2.39,3.98h-0.06V3.27
		L189.51,3.27z M197.34,3.27V13.4h4.53l2.56-5.67h0.06v5.67h3.88V3.27h-4.53l-2.56,5.79h-0.06V3.27H197.34L197.34,3.27z
		 M209.81,3.27V13.4h4.53l2.56-5.67h0.06v5.67h3.88V3.27h-4.53l-2.56,5.79h-0.06V3.27H209.81L209.81,3.27z M216.87,0
		c-0.03,0.84-1.17,0.9-1.55,0.9c-0.38,0-1.52-0.06-1.55-0.9L212,0.38c0.32,2.13,2.72,2.21,3.33,2.21c0.61,0,3.01-0.09,3.33-2.21
		L216.87,0L216.87,0z M79.69,6.37l-1.64,3.13l1.65,3.13h2.79l-1.32-3.13l1.3-3.13H79.69L79.69,6.37z M83.63,6.37h2.79l-1.3,3.13
		l1.32,3.13h-2.79l-1.65-3.13L83.63,6.37L83.63,6.37z M111.43,42.76l1.64-3.13l-1.64-3.13h-2.79l1.3,3.13l-1.3,3.13H111.43
		L111.43,42.76z M115.36,42.76h-2.79l1.3-3.13l-1.3-3.13h2.79l1.63,3.13L115.36,42.76L115.36,42.76z M52.92,22.3v2.07h3.5
		c-0.07,0.26-0.49,1.64-2.56,1.64c-0.17,0-1.16,0-2.36-0.46v2.69c0.8,0.2,1.84,0.41,2.91,0.41c4.34,0,6.05-2.71,6.05-5.24
		c0-1.98-1-5.24-6.15-5.24c-0.58,0-1.39,0.03-2.59,0.28l-0.22,0.04v2.68c0.97-0.41,1.92-0.46,2.27-0.46c1.95,0,2.47,1.09,2.65,1.61
		H52.92L52.92,22.3z M68.29,28.47h3.88V18.34h-9.16v3.23c0,1.9,0.22,4.33-1.26,4.33c-0.25,0-0.64-0.06-0.85-0.1v2.6
		c0.61,0.14,1.33,0.25,1.97,0.25c3.47,0,3.54-2.56,3.54-5.82v-1.74h1.88V28.47L68.29,28.47z M73.62,18.34v10.13h8.94v-2.39h-5.06
		V24.5h4.75v-2.32h-4.75v-1.46h4.96v-2.39H73.62L73.62,18.34z M87.62,18.34h-3.88v10.13h3.88v-4.3h0.06l2.49,4.3h4.63l-3.73-5.38
		l3.41-4.75h-4.41l-2.39,3.98h-0.06V18.34L87.62,18.34z M94.37,18.34h10.71v2.99h-3.42v7.13h-3.88v-7.13h-3.42V18.34L94.37,18.34z
		 M105.94,18.34v10.13h3.88v-2.92h2.13c3.15,0,4.31-1.95,4.31-3.57c0-1.85-1.33-3.63-4.39-3.63H105.94L105.94,18.34z M109.72,20.68
		h0.84c1.48,0,1.79,0.67,1.79,1.26c0,1.23-1.32,1.26-1.78,1.26h-0.85V20.68L109.72,20.68z M122.61,18.16
		c-3.57,0-5.64,2.01-5.64,5.24c0,3.23,2.07,5.24,5.64,5.24c3.57,0,5.64-2.01,5.64-5.24C128.26,20.18,126.19,18.16,122.61,18.16
		L122.61,18.16z M122.61,20.6c1.46,0,1.56,1.75,1.56,2.81c0,1.06-0.1,2.81-1.56,2.81c-1.46,0-1.56-1.75-1.56-2.81
		C121.05,22.35,121.15,20.6,122.61,20.6L122.61,20.6z M129.27,18.34v10.13h3.88v-7.24h4.41v-2.89H129.27L129.27,18.34z
		 M138.43,18.34v10.13h8.94v-2.39h-5.06V24.5h4.75v-2.32h-4.75v-1.46h4.96v-2.39H138.43L138.43,18.34z M155.03,21.84h-2.59v-3.5
		h-3.88v10.13h3.88v-3.73h2.59v3.73h3.88V18.34h-3.88V21.84L155.03,21.84z M160.35,18.34v10.13h8.94v-2.39h-5.06V24.5h4.75v-2.32
		h-4.75v-1.46h4.96v-2.39H160.35L160.35,18.34z M170.48,18.34v10.13h3.88v-2.92h2.13c3.15,0,4.31-1.95,4.31-3.57
		c0-1.85-1.33-3.63-4.39-3.63H170.48L170.48,18.34z M174.26,20.68h0.84c1.48,0,1.79,0.67,1.79,1.26c0,1.23-1.32,1.26-1.78,1.26
		h-0.85V20.68L174.26,20.68z M183.17,18.34h5.22l3.6,10.13h-4.08l-0.69-2.19h-3.04l-0.68,2.19h-3.88L183.17,18.34L183.17,18.34z
		 M185.73,20.74h-0.06l-1.04,3.17h2.16L185.73,20.74L185.73,20.74z M190.51,18.34v2.99h3.42v7.13h3.88v-7.13h3.41v-2.99H190.51
		L190.51,18.34z M206.8,18.16c3.57,0,5.64,2.01,5.64,5.24c0,3.23-2.07,5.24-5.64,5.24c-3.57,0-5.64-2.01-5.64-5.24
		C201.16,20.18,203.23,18.16,206.8,18.16L206.8,18.16z M206.8,20.6c-1.46,0-1.56,1.75-1.56,2.81c0,1.06,0.1,2.81,1.56,2.81
		c1.46,0,1.56-1.75,1.56-2.81C208.37,22.35,208.27,20.6,206.8,20.6L206.8,20.6z M213.46,18.34v10.13h3.88v-2.92h2.13
		c3.15,0,4.31-1.95,4.31-3.57c0-1.85-1.33-3.63-4.38-3.63H213.46L213.46,18.34z M217.24,20.68h0.84c1.48,0,1.79,0.67,1.79,1.26
		c0,1.23-1.32,1.26-1.78,1.26h-0.85V20.68L217.24,20.68z M231.39,21.84h-2.59v-3.5h-3.88v10.13h3.88v-3.73h2.59v3.73h3.88V18.34
		h-3.88V21.84L231.39,21.84z M236.71,28.47h6c2.85,0,4.11-1.68,4.11-3.6c0-1.92-1.26-3.6-4.11-3.6h-2.13v-2.92h-3.88V28.47
		L236.71,28.47z M240.49,26.12v-2.52h0.8c1.3,0,1.64,0.64,1.64,1.26c0,1.22-1.26,1.26-1.65,1.26H240.49L240.49,26.12z M247.63,18.34
		v10.13h3.88V18.34H247.63L247.63,18.34z M252.95,18.34v10.13h4.53l2.56-5.67h0.06v5.67h3.88V18.34h-4.53l-2.56,5.79h-0.06v-5.79
		H252.95L252.95,18.34z M260.01,15.07c-0.03,0.84-1.17,0.9-1.55,0.9c-0.38,0-1.52-0.06-1.55-0.9l-1.78,0.38
		c0.32,2.13,2.72,2.21,3.33,2.21c0.61,0,3.01-0.09,3.33-2.21L260.01,15.07L260.01,15.07z M53.04,39.37h1.88
		c1.24,0,1.5,0.56,1.5,0.98c0,0.35-0.26,0.93-1.62,0.93c-1.14,0-2.4-0.26-3.44-0.68v2.63c1.72,0.42,2.86,0.48,3.91,0.48
		c4.46,0,5.24-1.82,5.24-3.05c0-1.33-1.1-2.13-2.29-2.23v-0.06c1.3-0.17,1.97-1.2,1.97-2.19c0-1.11-0.56-2.95-4.73-2.95
		c-1.45,0-2.62,0.12-3.84,0.39v2.56c1.04-0.36,2.1-0.52,3-0.52c0.64,0,1.74,0.09,1.74,0.85c0,0.81-1.03,0.85-1.48,0.85h-1.84V39.37
		L53.04,39.37z M63.76,33.41h5.22l3.6,10.13h-4.08l-0.69-2.18h-3.04l-0.68,2.18h-3.88L63.76,33.41L63.76,33.41z M66.32,35.81h-0.06
		l-1.04,3.17h2.16L66.32,35.81L66.32,35.81z M73.09,33.41v10.13h5.89c1.29,0,4.18-0.14,4.18-2.71c0-1.59-1.27-2.26-2.29-2.4v-0.06
		c1.26-0.23,2.06-1.17,2.06-2.33c0-0.94-0.58-2.63-3.75-2.63H73.09L73.09,33.41z M76.77,35.46h1c1.07,0,1.37,0.55,1.37,0.97
		c0,0.29-0.13,0.98-1.46,0.98h-0.91V35.46L76.77,35.46z M76.77,39.41h0.9c0.33,0,1.53,0,1.53,1.03c0,0.36-0.2,1.04-1.45,1.04h-0.98
		V39.41L76.77,39.41z M89.62,33.23c-3.57,0-5.64,2.01-5.64,5.24c0,3.23,2.07,5.24,5.64,5.24c3.57,0,5.64-2.01,5.64-5.24
		C95.26,35.25,93.19,33.23,89.62,33.23L89.62,33.23z M89.62,35.66c1.46,0,1.56,1.75,1.56,2.81c0,1.06-0.1,2.81-1.56,2.81
		c-1.46,0-1.56-1.75-1.56-2.81C88.06,37.42,88.16,35.66,89.62,35.66L89.62,35.66z M97.59,33.41v3.24c0,1.24-0.01,2.81-1.39,4.18
		h-0.78v4.95h3.88v-2.24h4.5v2.24h3.88v-4.95h-1.07v-7.42H97.59L97.59,33.41z M102.73,36.01v4.82h-2.72c0.84-1.11,1-2.24,1-3.59
		v-1.23H102.73z"/>
</g>
</svg>
